<?xml version="1.0" standalone="no"?>
<!DOCTYPE svg PUBLIC "-//W3C//DTD SVG 20010904//EN"
 "http://www.w3.org/TR/2001/REC-SVG-20010904/DTD/svg10.dtd">
<svg version="1.0" xmlns="http://www.w3.org/2000/svg"
 width="512.000000pt" height="512.000000pt" viewBox="0 0 512.000000 512.000000"
 preserveAspectRatio="xMidYMid meet">

<g transform="translate(0.000000,512.000000) scale(0.100000,-0.100000)"
fill="#000000" stroke="none">
<path d="M53 5065 c-50 -21 -55 -42 -51 -194 4 -149 12 -176 72 -239 68 -74
82 -76 371 -82 l260 -5 3 -100 c2 -109 11 -137 49 -154 37 -17 59 -13 92 15
30 25 30 27 33 132 l3 107 262 3 261 2 4 -110 c3 -98 5 -112 26 -132 15 -16
34 -23 62 -23 28 0 47 7 62 23 21 20 23 34 26 132 l4 110 264 0 264 0 0 -106
c0 -103 1 -106 29 -135 33 -32 58 -36 101 -14 37 19 50 64 50 173 l0 82 260 0
260 0 0 -82 c0 -109 13 -154 50 -173 43 -22 68 -18 101 14 28 29 29 32 29 135
l0 106 265 0 265 0 0 -104 c0 -96 2 -107 24 -133 31 -36 95 -39 128 -5 21 20
23 34 26 132 l4 110 261 -2 262 -3 3 -107 c3 -105 3 -107 33 -132 33 -28 55
-32 92 -15 38 17 47 45 49 154 l3 100 260 5 c289 6 303 8 371 82 60 63 68 90
72 239 4 154 -1 173 -53 195 -51 21 -4964 20 -5012 -1z"/>
<path d="M383 4256 c-28 -24 -28 -25 -28 -151 0 -126 0 -127 28 -151 39 -33
81 -31 118 5 29 29 29 31 29 146 0 115 0 117 -29 146 -37 36 -79 38 -118 5z"/>
<path d="M1089 4251 c-29 -29 -29 -31 -29 -141 0 -140 18 -179 83 -180 70 0
97 48 97 175 0 51 -6 99 -14 120 -26 62 -89 74 -137 26z"/>
<path d="M1795 4255 c-24 -23 -25 -30 -25 -150 0 -120 1 -127 25 -150 32 -33
83 -33 119 0 25 24 26 27 26 148 0 121 -1 125 -26 151 -35 35 -86 35 -119 1z"/>
<path d="M2499 4251 c-29 -29 -29 -31 -29 -146 0 -115 0 -117 29 -146 20 -20
39 -29 61 -29 22 0 41 9 61 29 29 29 29 31 29 146 0 115 0 117 -29 146 -20 20
-39 29 -61 29 -22 0 -41 -9 -61 -29z"/>
<path d="M3206 4254 c-25 -26 -26 -30 -26 -151 0 -121 1 -124 26 -148 36 -33
87 -33 119 0 24 23 25 30 25 150 0 120 -1 127 -25 150 -33 34 -84 34 -119 -1z"/>
<path d="M3915 4256 c-31 -31 -38 -75 -33 -188 4 -84 6 -93 32 -114 30 -26 81
-31 107 -11 32 24 39 56 39 167 0 110 0 112 -29 141 -37 37 -82 39 -116 5z"/>
<path d="M4619 4251 c-29 -29 -29 -31 -29 -146 0 -115 0 -117 29 -146 37 -36
79 -38 118 -5 28 24 28 25 28 151 0 126 0 127 -28 151 -39 33 -81 31 -118 -5z"/>
<path d="M731 4074 c-19 -24 -21 -40 -21 -149 l0 -123 31 -26 c17 -14 41 -26
54 -26 13 0 37 12 54 26 l31 26 0 124 c0 119 -1 126 -25 149 -35 36 -96 35
-124 -1z"/>
<path d="M1449 4087 c-31 -24 -39 -56 -39 -159 0 -84 4 -109 19 -135 23 -37
68 -50 108 -31 43 20 53 52 53 166 0 107 -13 153 -45 166 -27 10 -79 6 -96 -7z"/>
<path d="M2145 4075 c-24 -23 -25 -30 -25 -145 0 -121 0 -122 29 -151 33 -33
58 -36 101 -14 40 20 53 75 48 192 -3 80 -7 96 -28 118 -32 34 -91 35 -125 0z"/>
<path d="M2850 4075 c-21 -22 -25 -38 -28 -118 -5 -117 8 -172 48 -192 43 -22
68 -19 101 14 29 29 29 30 29 151 0 115 -1 122 -25 145 -34 35 -93 34 -125 0z"/>
<path d="M3572 4093 c-7 -3 -19 -18 -27 -33 -19 -37 -21 -224 -2 -260 30 -59
114 -63 148 -7 15 26 19 51 19 139 0 100 -2 108 -26 137 -20 25 -33 31 -62 30
-21 0 -43 -3 -50 -6z"/>
<path d="M4265 4075 c-24 -23 -25 -30 -25 -149 l0 -124 31 -26 c17 -14 41 -26
54 -26 13 0 37 12 54 26 l31 26 0 123 c0 109 -2 125 -21 149 -28 36 -89 37
-124 1z"/>
<path d="M1057 3386 c-54 -20 -104 -56 -132 -97 -21 -29 -265 -732 -265 -761
0 -5 855 -8 1900 -8 1045 0 1900 3 1900 8 0 26 -244 731 -262 759 -27 39 -82
80 -135 99 -56 20 -2950 20 -3006 0z"/>
<path d="M115 2665 c-17 -16 -25 -35 -25 -60 0 -25 8 -44 25 -60 23 -24 28
-25 175 -25 l150 0 0 59 c0 48 -4 63 -25 85 -24 25 -27 26 -150 26 -120 0
-127 -1 -150 -25z"/>
<path d="M4705 2664 c-21 -22 -25 -37 -25 -85 l0 -59 150 0 c147 0 152 1 175
25 17 16 25 35 25 60 0 25 -8 44 -25 60 -23 24 -30 25 -150 25 -123 0 -126 -1
-150 -26z"/>
<path d="M327 2102 l-237 -238 0 -616 0 -617 24 -28 24 -28 2422 0 2422 0 24
28 24 28 0 617 0 616 -237 238 -237 238 -1996 0 -1996 0 -237 -238z m589 -307
c56 -23 363 -284 385 -327 52 -102 0 -228 -110 -266 -43 -15 -750 -17 -800 -2
-19 5 -48 22 -64 37 -53 51 -60 77 -65 229 -7 213 14 280 100 323 40 20 59 21
281 21 187 0 245 -3 273 -15z m2679 -4 c101 -45 140 -164 89 -263 -19 -37
-327 -295 -381 -319 -40 -19 -72 -19 -755 -17 -644 3 -716 5 -743 20 -53 29
-354 287 -369 316 -51 99 -12 218 89 263 38 18 91 19 1035 19 944 0 997 -1
1035 -19z m1166 -4 c29 -16 52 -38 69 -68 24 -42 25 -51 25 -209 0 -91 -3
-177 -8 -193 -12 -42 -74 -105 -115 -117 -22 -6 -188 -10 -408 -10 l-370 0
-52 26 c-68 34 -102 88 -102 163 0 84 22 113 194 256 225 187 191 175 481 175
234 0 243 -1 286 -23z m-3662 -872 c56 -29 63 -106 14 -145 -24 -19 -42 -20
-362 -20 -369 0 -366 0 -391 60 -16 38 1 84 39 105 39 21 659 22 700 0z m2317
-18 c40 -47 30 -107 -23 -135 -31 -17 -1635 -17 -1666 0 -32 17 -46 39 -47 73
0 36 23 73 54 85 11 5 389 8 839 7 l819 -2 24 -28z m1303 18 c40 -20 57 -66
41 -105 -25 -60 -22 -60 -391 -60 -320 0 -338 1 -362 20 -48 38 -42 116 12
145 39 21 659 22 700 0z"/>
<path d="M440 1500 l0 -130 356 0 c226 0 354 4 352 10 -1 5 -68 64 -148 130
l-144 120 -208 0 -208 0 0 -130z"/>
<path d="M1590 1621 c0 -4 66 -63 146 -130 l146 -121 679 0 678 0 146 121 c80
66 145 125 145 130 0 5 -376 9 -970 9 -533 0 -970 -4 -970 -9z"/>
<path d="M4120 1510 c-80 -66 -146 -125 -148 -130 -2 -6 126 -10 352 -10 l356
0 0 130 0 130 -208 0 -208 0 -144 -120z"/>
<path d="M264 385 c-3 -8 -4 -75 -2 -150 3 -132 4 -135 31 -162 l27 -28 325
-3 c356 -3 385 1 405 53 6 15 10 89 10 166 l0 139 -395 0 c-340 0 -396 -2
-401 -15z"/>
<path d="M4060 261 c0 -77 4 -151 10 -166 20 -52 49 -56 405 -53 l325 3 27 28
28 27 0 148 0 147 -397 3 -398 2 0 -139z"/>
</g>
</svg>
