<?xml version="1.0" standalone="no"?>
<!DOCTYPE svg PUBLIC "-//W3C//DTD SVG 20010904//EN"
 "http://www.w3.org/TR/2001/REC-SVG-20010904/DTD/svg10.dtd">
<svg version="1.0" xmlns="http://www.w3.org/2000/svg"
 width="512.000000pt" height="512.000000pt" viewBox="0 0 512.000000 512.000000"
 preserveAspectRatio="xMidYMid meet">

<g transform="translate(0.000000,512.000000) scale(0.100000,-0.100000)"
fill="#000000" stroke="none">
<path d="M550 4876 c0 -41 -68 -161 -116 -205 -48 -45 -155 -101 -191 -101
-13 0 -23 -4 -23 -10 0 -5 10 -10 23 -10 36 0 143 -56 191 -101 48 -44 116
-164 116 -205 0 -13 5 -24 10 -24 6 0 10 11 10 24 0 41 68 161 116 205 48 45
155 101 192 101 12 0 22 5 22 10 0 6 -10 10 -22 10 -37 0 -144 56 -192 101
-48 44 -116 164 -116 205 0 13 -4 24 -10 24 -5 0 -10 -11 -10 -24z"/>
<path d="M2376 4864 c-90 -22 -193 -81 -261 -150 -44 -44 -156 -209 -420 -618
-198 -307 -364 -560 -368 -563 -4 -2 -178 -53 -385 -112 l-377 -108 -5 -237
c-6 -297 8 -276 -186 -276 l-134 0 0 -240 0 -240 165 0 165 0 0 29 c0 47 46
180 87 251 46 79 178 213 256 259 31 18 96 47 144 64 82 29 98 31 223 31 125
0 141 -2 223 -31 110 -39 182 -82 267 -160 110 -102 199 -262 216 -391 l7 -52
88 0 89 0 -6 74 c-26 299 244 537 538 475 61 -13 120 -41 215 -103 309 -199
661 -255 1016 -160 104 28 265 102 353 161 205 139 385 150 562 33 l32 -22 0
371 0 371 -54 0 c-37 0 -60 6 -74 18 -13 10 -102 215 -222 507 -111 270 -216
517 -233 550 -67 127 -219 239 -364 270 -99 21 -1470 20 -1557 -1z m1566 -181
c81 -38 145 -96 181 -162 38 -68 357 -900 357 -929 0 -13 -11 -34 -25 -47
l-24 -25 -1351 0 -1351 0 -24 25 c-14 13 -25 36 -25 51 0 30 541 918 602 989
21 23 59 57 86 74 95 61 90 60 832 58 l675 -2 67 -32z m-742 -1403 l0 -80
-160 0 -160 0 0 80 0 80 160 0 160 0 0 -80z m1280 0 l0 -80 -160 0 -160 0 0
80 0 80 160 0 160 0 0 -80z"/>
<path d="M2494 4544 c-23 -8 -57 -30 -75 -48 -28 -27 -509 -793 -509 -810 0
-3 254 -6 565 -6 l565 0 0 440 0 440 -252 -1 c-196 0 -262 -4 -294 -15z"/>
<path d="M3200 4120 l0 -440 541 0 c511 0 541 1 535 18 -4 9 -68 179 -144 377
-133 351 -138 361 -187 410 -32 32 -65 55 -91 63 -29 8 -136 12 -348 12 l-306
0 0 -440z"/>
<path d="M303 3239 l-63 -20 0 -129 0 -130 80 0 80 0 0 150 c0 172 8 161 -97
129z"/>
<path d="M1165 2788 c-90 -17 -204 -80 -279 -154 -219 -219 -220 -568 -2 -786
114 -114 233 -163 396 -163 159 0 284 50 391 158 112 112 164 237 164 397 0
162 -49 281 -162 395 -130 132 -320 189 -508 153z m279 -186 c91 -42 149 -100
194 -190 35 -72 37 -81 37 -172 0 -91 -2 -100 -37 -172 -45 -91 -103 -147
-196 -191 -61 -29 -76 -32 -162 -32 -86 0 -101 3 -162 32 -93 44 -151 100
-196 191 -35 72 -37 81 -37 171 0 87 3 102 32 163 40 85 97 147 172 186 78 42
122 52 213 48 61 -3 92 -11 142 -34z"/>
<path d="M1200 2467 c-49 -16 -133 -102 -148 -153 -28 -94 -8 -169 63 -239
102 -103 243 -101 338 5 90 100 90 220 0 320 -65 72 -158 97 -253 67z"/>
<path d="M2514 2702 c-88 -31 -153 -99 -179 -186 -31 -104 -15 -170 74 -306
83 -126 126 -212 166 -335 84 -257 84 -533 0 -790 -41 -125 -77 -199 -166
-335 -38 -59 -73 -126 -80 -153 -41 -166 77 -333 250 -354 75 -9 134 11 250
85 58 36 132 77 164 91 31 14 57 29 57 32 0 3 -70 53 -156 109 -85 57 -160
112 -165 121 -14 26 -11 384 3 433 8 26 31 60 63 92 59 59 117 80 195 71 l50
-6 0 301 c0 207 4 314 12 342 16 55 99 138 154 154 49 14 104 15 137 3 22 -9
26 -6 43 31 35 77 129 138 214 138 85 0 179 -61 214 -138 17 -37 21 -40 43
-31 72 27 161 1 228 -66 58 -57 75 -102 75 -193 l0 -61 50 6 c78 9 136 -12
195 -71 32 -32 55 -66 63 -92 9 -30 12 -172 12 -514 l0 -472 -80 -82 c-74 -76
-80 -86 -80 -124 0 -40 2 -42 73 -88 90 -59 145 -77 218 -71 143 12 249 115
266 256 9 76 -12 136 -86 251 -88 135 -124 208 -166 333 -84 254 -84 540 0
794 42 125 78 198 166 333 74 115 95 175 86 251 -17 137 -119 239 -256 256
-74 8 -135 -12 -236 -76 -169 -109 -318 -172 -508 -213 -146 -31 -408 -31
-554 0 -189 41 -338 103 -508 212 -129 83 -198 97 -301 62z"/>
<path d="M3545 2055 l-25 -24 0 -376 0 -375 -80 0 -80 0 0 295 0 296 -25 24
c-32 33 -78 33 -110 0 l-25 -24 0 -536 0 -535 -80 0 -80 0 0 135 c0 131 -1
137 -25 160 -32 33 -78 33 -110 0 -24 -23 -25 -28 -25 -178 l0 -154 231 -153
c127 -85 235 -162 240 -171 5 -10 9 -58 9 -108 l0 -91 400 0 400 0 0 136 0
136 80 82 80 82 0 438 0 437 -25 24 c-32 33 -78 33 -110 0 -24 -23 -25 -29
-25 -160 l0 -135 -80 0 -80 0 0 295 0 296 -25 24 c-15 16 -36 25 -55 25 -19 0
-40 -9 -55 -25 l-25 -24 0 -296 0 -295 -80 0 -80 0 0 375 0 376 -25 24 c-15
16 -36 25 -55 25 -19 0 -40 -9 -55 -25z"/>
<path d="M550 1436 c0 -41 -68 -161 -116 -205 -48 -45 -155 -101 -191 -101
-13 0 -23 -4 -23 -10 0 -5 10 -10 23 -10 36 0 143 -56 191 -101 48 -44 116
-164 116 -205 0 -13 5 -24 10 -24 6 0 10 11 10 24 0 41 68 161 116 205 48 45
155 101 192 101 12 0 22 5 22 10 0 6 -10 10 -22 10 -37 0 -144 56 -192 101
-48 44 -116 164 -116 205 0 13 -4 24 -10 24 -5 0 -10 -11 -10 -24z"/>
<path d="M1510 876 c0 -41 -68 -161 -116 -205 -48 -45 -155 -101 -191 -101
-13 0 -23 -4 -23 -10 0 -5 10 -10 23 -10 36 0 143 -56 191 -101 48 -44 116
-164 116 -205 0 -13 5 -24 10 -24 6 0 10 11 10 24 0 41 68 161 116 205 48 45
155 101 192 101 12 0 22 5 22 10 0 6 -10 10 -22 10 -37 0 -144 56 -192 101
-48 44 -116 164 -116 205 0 13 -4 24 -10 24 -5 0 -10 -11 -10 -24z"/>
</g>
</svg>
