<?xml version="1.0" standalone="no"?>
<!DOCTYPE svg PUBLIC "-//W3C//DTD SVG 20010904//EN"
 "http://www.w3.org/TR/2001/REC-SVG-20010904/DTD/svg10.dtd">
<svg version="1.0" xmlns="http://www.w3.org/2000/svg"
 width="1500.000000pt" height="1124.000000pt" viewBox="0 0 1500.000000 1124.000000"
 preserveAspectRatio="xMidYMid meet">

<g transform="translate(0.000000,1124.000000) scale(0.100000,-0.100000)"
fill="#000000" stroke="none">
<path d="M9000 9604 c-25 -2 -103 -8 -175 -14 -203 -16 -598 -68 -725 -94
-236 -49 -432 -125 -754 -293 -177 -92 -221 -122 -203 -139 4 -4 58 7 119 24
296 83 513 108 798 92 220 -12 288 -22 349 -52 57 -28 59 -48 6 -64 -22 -6
-78 -28 -125 -47 -47 -19 -132 -51 -190 -70 -346 -113 -1066 -470 -1410 -700
-258 -172 -528 -406 -607 -525 -25 -38 -44 -55 -64 -59 -20 -4 -36 -18 -54
-48 -38 -66 -221 -252 -300 -305 -90 -60 -94 -66 -105 -137 -12 -72 -46 -172
-94 -277 -20 -43 -36 -85 -36 -92 0 -26 25 -13 58 29 138 174 595 585 757 680
39 23 73 46 78 52 4 5 17 42 28 80 47 157 92 213 195 245 87 27 162 26 209 -1
l36 -21 82 48 c239 140 323 181 732 352 72 30 155 65 186 78 92 39 486 111
755 139 368 38 566 48 789 41 110 -4 203 -4 207 -1 18 18 -19 40 -193 115
-232 98 -393 155 -512 179 -50 10 -86 20 -81 24 24 15 151 30 259 31 106 1
129 -2 200 -26 44 -15 120 -37 168 -48 49 -11 140 -43 201 -70 114 -51 146
-59 146 -39 0 6 -14 39 -31 74 -17 35 -32 85 -36 116 -7 73 21 115 97 146 65
26 103 28 188 8 121 -29 215 -88 356 -224 144 -140 239 -272 373 -516 108
-196 153 -329 179 -530 8 -66 19 -136 24 -155 12 -47 81 -156 162 -258 76 -97
114 -169 157 -305 41 -129 55 -229 47 -352 -10 -173 -56 -295 -166 -439 -33
-44 -60 -87 -60 -95 0 -9 9 -29 21 -46 58 -86 69 -121 69 -217 -1 -257 -55
-547 -152 -813 -80 -218 -120 -291 -263 -473 -9 -11 -20 -9 -59 7 -29 13 -69
21 -105 21 -54 0 -57 2 -74 33 -18 32 -18 33 18 109 19 42 35 81 35 86 0 5 11
19 25 32 59 55 86 126 111 285 12 82 30 186 38 230 18 94 21 263 5 335 -8 36
-21 62 -45 85 -29 30 -34 41 -34 84 0 110 -63 351 -103 395 -30 33 -157 82
-273 106 -232 48 -590 106 -754 123 l-115 12 -43 125 c-70 208 -193 532 -220
583 -14 27 -33 52 -42 57 -44 24 -372 57 -690 70 -124 5 -362 16 -530 24 -249
12 -421 14 -935 6 -369 -5 -651 -13 -680 -20 -59 -12 -145 -52 -169 -79 -9
-10 -37 -67 -63 -127 -25 -60 -77 -183 -115 -274 -39 -91 -86 -204 -105 -251
l-35 -86 -47 -11 c-25 -6 -66 -14 -91 -17 -25 -4 -89 -15 -143 -26 -54 -10
-155 -26 -225 -34 -70 -9 -147 -20 -172 -24 -25 -5 -106 -19 -180 -31 -179
-30 -232 -56 -300 -148 -75 -101 -92 -155 -88 -279 3 -98 2 -102 -20 -113 -13
-5 -31 -29 -41 -53 -17 -38 -19 -69 -16 -302 2 -261 18 -425 46 -477 7 -12 39
-50 71 -83 52 -53 61 -70 84 -145 26 -84 26 -85 8 -120 -18 -33 -22 -35 -84
-41 -36 -4 -82 -14 -103 -22 -39 -17 -77 -68 -77 -104 0 -49 63 -259 102 -340
27 -54 38 -66 84 -90 l54 -28 2 -355 c1 -195 2 -464 3 -597 l1 -242 31 -43
c31 -45 112 -100 173 -120 19 -6 109 -13 200 -15 275 -8 405 29 484 137 24 32
48 79 55 104 21 84 31 230 31 465 l0 234 1122 -6 1123 -6 40 -45 c50 -56 121
-100 194 -122 84 -24 263 -15 351 18 82 32 183 82 237 119 41 29 43 29 192 29
l150 0 9 -33 c7 -27 13 -33 40 -35 28 -3 34 1 43 26 l10 29 127 6 c70 4 156
10 190 13 l62 7 0 -61 0 -62 -47 -35 c-27 -20 -115 -84 -198 -142 -82 -58
-172 -125 -200 -148 -51 -43 -150 -102 -282 -169 -40 -20 -73 -41 -73 -46 0
-5 12 -12 28 -15 60 -12 77 -22 99 -54 29 -43 31 -121 5 -171 -27 -51 -113
-100 -174 -100 -50 0 -113 25 -137 54 -22 27 -63 18 -146 -30 -44 -26 -106
-61 -138 -80 -85 -49 -273 -129 -437 -186 -80 -28 -151 -55 -158 -61 -19 -15
2 -33 56 -47 58 -14 53 -18 -98 -63 -282 -86 -834 -133 -1240 -108 -262 17
-416 35 -725 87 -544 92 -1007 229 -1303 383 -42 22 -78 39 -80 37 -10 -10 26
-51 145 -166 322 -313 742 -527 1283 -654 218 -51 436 -78 785 -97 325 -17
743 10 1025 66 41 8 181 31 310 51 330 50 486 87 717 173 404 149 695 320 978
576 88 80 97 85 76 50 -43 -74 -112 -165 -146 -192 -18 -16 -64 -44 -102 -63
-37 -20 -69 -42 -69 -50 -1 -8 -2 -26 -3 -38 -2 -47 -89 -108 -194 -135 -42
-11 -82 -34 -150 -84 -171 -129 -391 -278 -572 -388 -44 -27 -190 -104 -325
-171 -214 -106 -322 -156 -522 -242 -53 -23 -62 -42 -20 -42 54 0 269 40 397
74 300 80 537 176 1000 406 564 280 900 487 1190 735 149 127 383 356 396 388
7 18 44 66 82 107 39 41 115 131 171 199 56 68 127 156 159 195 68 83 374 531
406 594 12 24 36 82 52 130 53 151 69 173 168 231 48 28 101 66 118 83 91 94
257 552 374 1029 156 638 156 1593 1 1923 -38 80 -85 141 -225 291 -64 69
-119 136 -123 150 -3 14 3 67 15 118 34 146 30 186 -29 306 -79 162 -220 357
-373 517 -264 277 -819 637 -1168 759 -123 43 -341 88 -529 110 -135 15 -435
26 -520 19z m-1205 -2205 c132 -5 346 -14 475 -19 378 -15 714 -47 769 -73 34
-16 55 -55 113 -210 132 -349 196 -538 181 -535 -15 3 -306 685 -298 699 10
15 -54 19 -360 19 -176 0 -561 5 -855 10 -294 5 -803 12 -1130 16 l-595 7
-112 -294 c-62 -162 -123 -322 -135 -356 -19 -53 -27 -62 -52 -67 -16 -3 -31
-4 -33 -2 -2 2 17 53 42 112 43 100 91 214 205 488 22 55 46 106 52 114 22 26
110 63 185 78 57 11 179 14 526 15 249 1 490 4 537 9 47 4 121 6 165 3 44 -2
188 -8 320 -14z m384 -263 c-2 -2 -56 -14 -119 -25 -63 -12 -506 -97 -985
-190 -478 -94 -871 -168 -873 -167 -1 2 16 31 39 64 28 41 51 63 68 66 14 3
159 24 321 45 444 60 1239 170 1380 190 130 19 176 24 169 17z m-489 -491 c35
-7 66 -17 67 -22 8 -24 76 -123 84 -123 15 0 11 13 -16 52 l-24 36 30 4 c33 5
238 -5 469 -22 80 -6 345 -15 590 -20 494 -9 550 -13 932 -76 445 -73 558
-100 644 -153 23 -14 38 -36 54 -78 36 -96 61 -203 65 -288 4 -65 3 -71 -4
-34 -11 55 -56 124 -91 138 -67 27 -146 42 -260 51 -69 6 -163 14 -210 20 -47
5 -186 14 -310 20 -124 6 -322 15 -440 20 -767 36 -2085 43 -3365 19 -330 -6
-735 -14 -900 -16 l-300 -4 -62 -29 c-77 -36 -95 -63 -102 -154 -9 -104 -26
-88 -29 28 -3 113 8 158 59 233 79 118 125 144 306 174 70 11 148 24 173 29
25 4 117 17 205 29 88 12 176 26 195 31 19 5 80 16 135 24 55 9 125 23 155 32
48 14 155 17 823 21 422 3 767 2 767 -1 0 -4 -7 -23 -15 -43 -29 -69 -8 -54
30 22 35 68 50 82 95 88 77 9 188 6 250 -8z m665 -465 c94 -6 249 -10 345 -10
96 0 272 -4 390 -10 118 -5 339 -14 490 -20 151 -6 340 -17 420 -25 80 -8 186
-17 235 -20 136 -10 263 -43 282 -74 11 -18 -8 -18 -670 -14 -3107 20 -5126
36 -5197 41 l-85 7 29 28 c16 15 49 36 73 47 49 21 -17 19 1188 39 385 7 914
16 1175 21 510 9 1050 4 1325 -10z m150 -181 c1861 -10 2030 -13 2042 -28 7
-9 13 -33 13 -53 l0 -38 -64 0 -65 0 -3 33 -3 32 -1005 7 c-3245 21 -4638 28
-4653 23 -9 -4 -17 -16 -19 -28 -3 -21 -9 -22 -97 -25 -93 -3 -94 -3 -87 20 3
13 6 36 6 52 l0 29 953 -6 c523 -4 1865 -12 2982 -18z m-3430 -1004 c248 -2
923 -6 1500 -9 2134 -13 3604 -27 3737 -36 108 -7 148 -6 190 5 29 7 55 11 57
9 3 -2 -10 -20 -29 -39 l-33 -34 -281 5 c-155 2 -864 9 -1576 14 -712 6 -1914
15 -2670 21 l-1375 11 -27 26 c-39 36 -35 46 15 37 23 -4 245 -9 492 -10z m24
-75 l126 0 -3 -114 -3 -114 -72 -6 c-82 -8 -448 -7 -489 1 -27 4 -27 5 -14 38
13 30 12 41 -10 112 -13 43 -24 79 -24 80 0 6 141 10 244 7 66 -2 176 -4 245
-4z m5388 -54 c2 -2 -12 -36 -31 -75 -40 -78 -43 -98 -21 -127 8 -10 15 -23
15 -28 0 -10 -517 -2 -527 8 -3 3 -10 52 -14 108 -5 57 -11 109 -14 117 -5 12
38 13 291 8 164 -4 299 -9 301 -11z m-3363 -71 c74 -4 83 -10 140 -98 l20 -30
-845 7 c-464 3 -924 9 -1021 12 l-178 7 0 59 0 59 908 -6 c499 -3 938 -8 976
-10z m2762 -28 c1 -1 4 -31 8 -66 l6 -64 -692 7 c-381 3 -838 9 -1014 13
l-322 6 46 60 46 60 960 -7 c529 -4 961 -8 962 -9z m-3616 -108 c531 -5 1593
-16 2360 -24 767 -9 1523 -15 1680 -14 260 1 289 0 325 -17 37 -18 40 -22 43
-65 l3 -46 -438 -7 c-665 -10 -2170 -8 -2798 4 -793 15 -2895 50 -2987 50 -74
0 -78 1 -78 23 1 51 54 87 145 97 84 10 623 9 1745 -1z m195 -255 c1280 -20
1980 -25 2938 -24 691 0 1257 -3 1257 -7 0 -4 -16 -59 -35 -122 -38 -127 -61
-160 -128 -182 -48 -15 -340 -15 -1952 1 -544 5 -1480 14 -2080 20 -2025 19
-1836 15 -1899 43 -30 14 -62 37 -71 51 -18 27 -96 241 -90 247 4 5 -96 6
2060 -27z"/>
<path d="M4817 4821 c-2 -21 -2 -50 0 -65 l5 -27 92 3 91 3 3 63 3 62 -94 0
-94 0 -6 -39z"/>
<path d="M10107 4823 c-2 -5 -1 -34 1 -65 l4 -58 93 0 93 0 6 31 c3 17 6 47 6
65 l0 34 -99 0 c-55 0 -101 -3 -104 -7z"/>
</g>
</svg>
